<?xml version="1.0" standalone="no"?>
<!DOCTYPE svg PUBLIC "-//W3C//DTD SVG 20010904//EN"
 "http://www.w3.org/TR/2001/REC-SVG-20010904/DTD/svg10.dtd">
<svg version="1.0" xmlns="http://www.w3.org/2000/svg"
 width="400.000000pt" height="128.000000pt" viewBox="0 0 400.000000 128.000000"
 preserveAspectRatio="xMidYMid meet">
<metadata>
Created by potrace 1.15, written by Peter Selinger 2001-2017
</metadata>
<g transform="translate(0.000000,128.000000) scale(0.100000,-0.100000)"
fill="#000000" stroke="none">
<path d="M625 1220 l-29 -31 268 -267 c148 -147 266 -262 263 -256 -4 6 5 22
20 35 14 13 23 18 19 12 -4 -7 -2 -13 3 -13 6 0 11 5 11 12 0 7 -118 131 -263
276 l-262 263 -30 -31z"/>
<path d="M1430 1020 c0 -49 1 -50 30 -50 l31 0 -3 -380 c-3 -410 -2 -399 -55
-400 -21 0 -23 -5 -23 -50 l0 -50 64 0 c54 0 69 4 94 25 47 40 52 85 52 490
l0 365 25 0 c23 0 25 3 25 50 l0 50 -120 0 -120 0 0 -50z"/>
<path d="M1710 1020 c0 -49 1 -50 30 -50 l30 0 0 -295 0 -295 -30 0 c-29 0
-30 -1 -30 -50 l0 -50 190 0 190 0 0 120 0 120 -55 0 -55 0 0 -70 0 -70 -45 0
-45 0 0 130 0 130 40 0 40 0 0 50 0 50 -40 0 -40 0 0 115 0 115 45 0 45 0 0
-70 0 -70 55 0 55 0 0 120 0 120 -190 0 -190 0 0 -50z"/>
<path d="M2140 1020 c0 -47 2 -50 25 -50 l25 0 0 -295 0 -295 -25 0 c-23 0
-25 -3 -25 -50 l0 -50 185 0 185 0 0 175 0 175 -55 0 -55 0 0 -125 0 -125 -40
0 -40 0 0 295 0 295 30 0 c29 0 30 1 30 50 l0 50 -120 0 -120 0 0 -50z"/>
<path d="M2620 1020 c0 -47 2 -50 25 -50 14 0 25 -3 25 -7 0 -5 -20 -136 -43
-293 l-43 -285 -27 -3 c-25 -3 -27 -6 -27 -53 l0 -49 115 0 115 0 0 50 c0 47
-2 50 -26 50 -23 0 -25 3 -20 27 2 16 8 54 11 86 l6 57 39 0 c42 0 38 9 55
-122 6 -46 5 -48 -19 -48 -24 0 -26 -3 -26 -50 l0 -50 115 0 115 0 0 50 c0 47
-2 50 -25 50 -30 0 -25 -20 -70 295 -20 138 -38 260 -41 273 -4 19 0 22 26 22
29 0 30 1 30 50 l0 50 -155 0 -155 0 0 -50z"/>
<path d="M3030 925 l0 -145 50 0 50 0 0 95 0 95 30 0 30 0 0 -295 0 -295 -35
0 -35 0 0 -50 0 -50 130 0 130 0 0 50 0 50 -35 0 -35 0 0 295 0 295 30 0 30 0
0 -95 0 -95 45 0 45 0 0 145 0 145 -215 0 -215 0 0 -145z"/>
<path d="M3570 1020 c0 -49 1 -50 30 -50 26 0 30 -3 25 -22 -3 -13 -21 -131
-40 -263 -48 -332 -42 -305 -70 -305 -23 0 -25 -4 -25 -50 l0 -50 115 0 115 0
0 50 c0 47 -2 50 -26 50 l-26 0 7 68 c10 100 11 102 55 102 l38 0 8 -82 c9
-81 9 -83 -13 -86 -20 -3 -23 -9 -23 -53 l0 -49 110 0 110 0 0 50 c0 45 -2 50
-23 50 -22 0 -24 7 -61 263 -21 144 -40 277 -43 295 -5 29 -3 32 21 32 25 0
26 3 26 50 l0 50 -155 0 -155 0 0 -50z"/>
<path d="M398 751 c-139 -141 -215 -219 -167 -173 47 45 89 79 94 75 4 -4 5
-3 2 3 -8 13 56 77 67 67 4 -5 6 -1 4 7 -2 8 2 14 9 15 15 0 28 13 28 28 1 7
6 11 13 10 7 -2 11 3 9 10 -1 6 4 11 11 9 8 -1 11 2 6 9 -5 8 -3 9 6 4 9 -6
11 -4 5 5 -6 9 -4 11 5 5 9 -6 11 -4 5 5 -6 9 -4 11 5 5 9 -6 11 -4 5 5 -6 9
-4 11 5 5 9 -6 11 -4 5 5 -5 9 -4 11 4 6 7 -5 10 -2 9 6 -2 7 3 12 10 10 8 -1
11 2 6 9 -5 8 -3 9 6 4 9 -6 11 -4 5 5 -6 9 -4 11 5 5 9 -6 11 -4 5 5 -6 9 -4
11 5 5 9 -6 11 -4 5 5 -6 9 -4 11 5 5 9 -6 11 -4 5 5 -6 9 -4 11 5 5 9 -6 11
-4 5 5 -6 9 -4 11 5 5 9 -6 11 -4 5 5 -6 9 -4 11 5 5 9 -6 11 -4 5 5 -6 9 -4
11 5 5 9 -6 11 -4 5 5 -6 9 -4 11 5 5 9 -5 11 -4 6 4 -5 7 -2 10 6 9 7 -2 12
2 11 8 -1 6 5 11 13 11 9 0 -101 -118 -244 -261 l-260 -261 26 -27 27 -28 263
263 262 262 -26 26 c-18 18 -21 26 -10 26 8 0 12 -5 9 -10 -4 -6 -1 -7 7 -2 9
6 11 4 5 -5 -6 -9 -4 -11 5 -5 8 5 11 4 6 -3 -3 -6 1 -15 10 -20 15 -8 15 -10
-1 -15 -9 -4 -13 -12 -9 -18 5 -8 3 -9 -6 -4 -9 6 -11 4 -5 -5 6 -9 4 -11 -5
-5 -9 5 -11 4 -6 -4 5 -7 2 -10 -6 -9 -7 2 -12 -3 -10 -10 1 -8 -2 -11 -9 -6
-8 5 -9 3 -4 -6 6 -9 4 -11 -5 -5 -9 6 -11 4 -5 -5 6 -9 4 -11 -5 -5 -9 6 -11
4 -5 -5 5 -8 4 -11 -2 -7 -13 8 -36 -17 -25 -28 4 -5 2 -5 -4 -2 -6 3 -11 -1
-11 -9 0 -8 28 12 63 47 35 34 61 66 59 70 -3 4 3 10 13 14 16 6 16 7 0 19
-10 7 -15 15 -13 18 11 11 -29 33 -61 33 -30 1 -53 -19 -286 -254z"/>
<path d="M1168 644 c-98 -97 -178 -180 -178 -185 0 -5 79 72 176 171 97 99
182 180 188 180 6 0 -108 -119 -254 -265 -234 -234 -300 -295 -274 -253 5 7 3
8 -5 3 -9 -5 -4 -17 20 -41 18 -19 35 -34 38 -34 2 0 -5 10 -17 23 -33 35 -26
45 8 12 17 -16 36 -30 44 -31 7 -1 128 114 267 255 140 141 204 207 144 148
-61 -59 -115 -104 -120 -100 -4 4 -5 3 -2 -3 8 -14 -17 -37 -28 -26 -5 4 -5 2
-2 -4 4 -7 0 -17 -8 -24 -8 -7 -15 -9 -15 -4 0 13 -25 -16 -25 -29 -1 -7 -7
-11 -14 -9 -7 1 -10 -2 -5 -9 5 -8 3 -9 -6 -4 -9 6 -11 4 -5 -5 6 -9 4 -11 -5
-5 -9 6 -11 4 -5 -5 6 -9 4 -11 -5 -5 -9 6 -11 4 -5 -5 6 -9 4 -11 -5 -5 -9 6
-11 4 -5 -5 6 -9 4 -11 -5 -5 -9 6 -11 4 -5 -5 6 -9 4 -11 -5 -5 -9 6 -11 4
-5 -5 6 -9 4 -11 -5 -5 -9 6 -11 4 -5 -5 6 -9 4 -11 -5 -5 -9 6 -11 4 -5 -5 6
-9 4 -11 -5 -5 -9 6 -11 4 -5 -5 6 -9 4 -11 -5 -5 -9 6 -11 4 -5 -5 6 -9 4
-11 -5 -5 -9 6 -11 4 -5 -5 6 -9 4 -11 -5 -5 -9 6 -11 4 -5 -5 6 -9 4 -11 -5
-5 -9 6 -11 4 -5 -5 6 -9 4 -11 -5 -5 -9 6 -11 4 -5 -5 6 -9 4 -11 -5 -5 -9 6
-11 4 -5 -5 6 -9 4 -11 -5 -5 -9 6 -11 4 -5 -5 6 -9 4 -11 -5 -5 -9 6 -11 4
-5 -5 6 -9 4 -11 -5 -5 -8 5 -11 4 -7 -2 3 -5 -1 -10 -9 -10 -9 0 102 118 245
261 l261 262 -33 32 c-18 18 -35 32 -37 32 -3 0 -85 -80 -182 -176z"/>
<path d="M432 547 l-32 -33 135 -134 c73 -73 133 -138 132 -144 -1 -6 3 -10 9
-9 6 1 62 -50 125 -113 62 -63 119 -114 125 -114 6 0 20 10 32 23 l21 23 -259
259 c-142 142 -257 262 -254 267 11 17 -3 7 -34 -25z"/>
</g>
</svg>
